# xmcd
#
# Track frame offsets:
#	150
#	16974
#	36486
#	57035
#	77241
#	106034
#	124055
#	148704
#	168328
#	184813
#	202517
#	235718
#	254917
#	278416
#
# Disc length: 4037 seconds
#
# Revision: 1
# Processed by: cddbd v1.5.2PL0 Copyright (c) Steve Scherf et al.
# Submitted via: audiograbber 1.83.01
#
DISCID=b70fc30e
DTITLE=Dave Bremner - Dave
DYEAR=1900
DGENRE=Blues
TTITLE0=My blue Heaven
TTITLE1=Tennessee Waltz
TTITLE2=Annie's Song
TTITLE3=And I love you so
TTITLE4=City of New Orleans
TTITLE5=Mr. Bojangles
TTITLE6=Scarlet Ribbons
TTITLE7=Singing the Blues
TTITLE8=Streets of London
TTITLE9=Don't think Twice
TTITLE10=Baker Street
TTITLE11=Where do you go to my Lovely
TTITLE12=Last Thing on my Mind
TTITLE13=In the early Morning Rain
EXTD=
EXTT0=
EXTT1=
EXTT2=
EXTT3=
EXTT4=
EXTT5=
EXTT6=
EXTT7=
EXTT8=
EXTT9=
EXTT10=
EXTT11=
EXTT12=
EXTT13=
PLAYORDER=
